<svg id="icons" enable-background="new 0 0 64 64" height="512" viewBox="0 0 64 64" width="512" xmlns="http://www.w3.org/2000/svg"><path d="m37.979 23.995c1.11.011 1.99.9 1.99 2 0 1.11-.89 2-2 2h-5-16-3c-1.1 0-2-.89-2-2 0-1.1.9-2 2-2h24z" fill="#965353"/><path d="m37.979 20.995v3h-.01-24v-3c0-3.319 2.69-6 6-6h12.01c3.31 0 6 2.691 6 6z" fill="#ffd2a6"/><path d="m25.979 32.006 6.99-4.011h5v3.011c0 1.659-1.34 3-3 3h-18c-1.66 0-3-1.351-3-3v-3.011h3l9 4.011z" fill="#ffd2a6"/><path d="m13.969 20.995v3c-1.1 0-2 .9-2 2 0 1.11.9 2 2 2v3.011c0 1.649 1.34 3 3 3h18c1.66 0 3-1.341 3-3v-3.011c1.11 0 2-.89 2-2 0-1.1-.88-1.989-1.99-2v-3c0-3.31-2.689-6-6-6h-12.01c-3.31 0-6 2.681-6 6zm25.88-10.84c8.2 8.2 8.2 21.49 0 29.69s-21.5 8.2-29.7 0c-8.199-8.2-8.199-21.49 0-29.69 8.2-8.21 21.499-8.21 29.7 0z" fill="#5d9cec"/><path d="m56.179 61.825-11.59-11.58 1.42-1.41 2.83-2.829 1.41-1.41 11.58 11.58c1.56 1.56 1.56 4.09 0 5.649-1.56 1.571-4.09 1.571-5.65 0z" fill="#656d78"/><path d="m48.839 46.006-2.83 2.829-5.51-5.51c.51-.42 1-.87 1.47-1.35.48-.48.93-.97 1.35-1.48z" fill="#ccd1d9"/><path d="m8.028 8.025c9.381-9.37 24.57-9.37 33.94 0 8.89 8.9 9.35 23.04 1.35 32.47-.42.511-.869 1-1.35 1.48-.47.479-.96.93-1.47 1.35-9.431 8-23.57 7.54-32.471-1.35-9.368-9.379-9.368-24.57.001-33.95zm31.821 31.821c8.2-8.2 8.2-21.49 0-29.69-8.2-8.21-21.5-8.21-29.7 0-8.199 8.2-8.199 21.49 0 29.69 8.2 8.2 21.499 8.2 29.7 0z" fill="#e6e9ed"/><path d="m34.971 27.995-8.992 4.011h-.01l-9-4.011z" fill="#f6bb42"/><path d="m25 46.998c-5.877 0-11.401-2.288-15.557-6.443-4.155-4.154-6.443-9.678-6.443-15.556 0-5.877 2.288-11.401 6.443-15.556 4.156-4.155 9.68-6.443 15.557-6.443s11.401 2.288 15.557 6.443c8.577 8.577 8.577 22.534 0 31.111-4.156 4.156-9.68 6.444-15.557 6.444zm0-41.998c-5.343 0-10.365 2.08-14.143 5.857-3.777 3.777-5.857 8.799-5.857 14.142s2.08 10.365 5.857 14.142 8.8 5.857 14.143 5.857 10.365-2.08 14.143-5.857c7.798-7.798 7.798-20.485 0-28.283-3.778-3.778-8.8-5.858-14.143-5.858z"/><path d="m25 49.998c-6.678 0-12.956-2.6-17.678-7.321s-7.321-11-7.322-17.678c0-6.678 2.601-12.956 7.322-17.677 4.723-4.721 11.001-7.322 17.678-7.322 6.678 0 12.956 2.601 17.678 7.322 9.747 9.747 9.747 25.606 0 35.354-4.723 4.722-11.001 7.322-17.678 7.322zm0-47.998c-6.143 0-11.919 2.393-16.264 6.736-4.343 4.344-6.736 10.119-6.736 16.263.001 6.144 2.393 11.92 6.736 16.264s10.12 6.735 16.264 6.735c6.143 0 11.919-2.392 16.264-6.735 8.967-8.968 8.967-23.56 0-32.526-4.344-4.344-10.12-6.737-16.264-6.737z"/><path d="m46.006 49.834c-.256 0-.512-.098-.707-.293l-5.508-5.509c-.391-.391-.391-1.023 0-1.414s1.023-.391 1.414 0l5.508 5.509c.391.391.391 1.023 0 1.414-.195.195-.451.293-.707.293z"/><path d="m48.834 47.006c-.256 0-.512-.098-.707-.293l-5.514-5.515c-.391-.391-.391-1.023 0-1.414s1.023-.391 1.414 0l5.514 5.515c.391.391.391 1.023 0 1.414-.195.195-.451.293-.707.293z"/><path d="m44.592 51.248c-.256 0-.512-.098-.707-.293-.391-.391-.391-1.023 0-1.414l5.656-5.658c.391-.391 1.023-.391 1.414 0s.391 1.023 0 1.414l-5.656 5.658c-.195.195-.451.293-.707.293z"/><path d="m56.172 62.828c-.256 0-.512-.098-.707-.293l-11.58-11.58c-.391-.391-.391-1.023 0-1.414s1.023-.391 1.414 0l11.58 11.58c.391.391.391 1.023 0 1.414-.195.195-.451.293-.707.293z"/><path d="m61.828 57.173c-.256 0-.512-.098-.707-.293l-11.58-11.583c-.391-.391-.391-1.023 0-1.414s1.023-.391 1.414 0l11.58 11.583c.391.391.391 1.023 0 1.414-.195.195-.451.293-.707.293z"/><path d="m59.001 64c-1.336 0-2.592-.521-3.536-1.465-.391-.391-.391-1.023 0-1.414s1.023-.391 1.414 0c1.133 1.132 3.11 1.136 4.241 0 .567-.566.88-1.32.88-2.122 0-.801-.312-1.553-.878-2.118-.392-.391-.392-1.023-.002-1.414.391-.393 1.025-.391 1.414-.002.945.943 1.466 2.198 1.466 3.534s-.521 2.592-1.465 3.536c-.943.944-2.198 1.465-3.534 1.465z"/><path d="m16.97 35c-2.206 0-4-1.794-4-4 0-.553.447-1 1-1s1 .447 1 1c0 1.103.897 2 2 2 .553 0 1 .447 1 1s-.448 1-1 1z"/><path d="m34.965 35.005c-.553 0-1-.447-1-1s.447-1 1-1c1.105 0 2.005-.899 2.005-2.005 0-.553.447-1 1-1s1 .447 1 1c0 2.208-1.797 4.005-4.005 4.005z"/><path d="m13.97 32c-.553 0-1-.447-1-1v-3.001c0-.553.447-1 1-1s1 .447 1 1v3.001c0 .553-.448 1-1 1z"/><path d="m37.97 28.999h-24c-.553 0-1-.447-1-1s.447-1 1-1h24c.553 0 1 .447 1 1s-.448 1-1 1z"/><path d="m37.97 32c-.553 0-1-.447-1-1v-3.001c0-.553.447-1 1-1s1 .447 1 1v3.001c0 .553-.448 1-1 1z"/><path d="m13.968 28.999c-1.654 0-3-1.346-3-3s1.346-3 3-3c.553 0 1 .447 1 1s-.447 1-1 1c-.552 0-1 .448-1 1s.448 1 1 1c.553 0 1 .447 1 1s-.447 1-1 1z"/><path d="m37.969 28.999c-.553 0-1-.447-1-1s.447-1 1-1c.552 0 1-.448 1-1s-.448-1-1-1c-.553 0-1-.447-1-1s.447-1 1-1c1.654 0 3 1.346 3 3s-1.346 3-3 3z"/><path d="m37.969 24.999h-24.001c-.553 0-1-.447-1-1s.447-1 1-1h24.001c.553 0 1 .447 1 1s-.448 1-1 1z"/><path d="m13.969 21.995c-.553 0-1-.447-1-1 0-3.859 3.141-7 7-7 .553 0 1 .447 1 1s-.447 1-1 1c-2.757 0-5 2.243-5 5 0 .553-.448 1-1 1z"/><path d="m37.975 21.996c-.553 0-1-.447-1-1 0-2.757-2.243-5-5-5-.553 0-1-.447-1-1s.447-1 1-1c3.859 0 7 3.141 7 7 0 .553-.448 1-1 1z"/><path d="m31.976 15.996h-12.007c-.553 0-1-.447-1-1s.447-1 1-1h12.007c.553 0 1 .447 1 1s-.448 1-1 1z"/><path d="m37.975 24.999c-.553 0-1-.447-1-1v-3.007c0-.553.447-1 1-1s1 .447 1 1v3.007c0 .553-.448 1-1 1z"/><path d="m13.97 24.999c-.553 0-1-.447-1-1v-3.007c0-.553.447-1 1-1s1 .447 1 1v3.007c0 .553-.448 1-1 1z"/><path d="m25.972 33.003c-.136 0-.273-.027-.405-.086l-9.004-4.004c-.505-.225-.731-.815-.508-1.32.225-.505.817-.731 1.32-.508l9.004 4.004c.505.225.731.815.508 1.32-.166.373-.532.594-.915.594z"/><path d="m25.969 33.003c-.384 0-.749-.221-.915-.594-.224-.505.003-1.096.508-1.32l9.004-4.004c.505-.224 1.096.003 1.32.508s-.003 1.096-.508 1.32l-9.004 4.004c-.132.059-.27.086-.405.086z"/><path d="m34.965 35h-17.995c-.553 0-1-.447-1-1s.447-1 1-1h17.995c.553 0 1 .447 1 1s-.447 1-1 1z"/><path d="m18.012 19.002c-.553 0-1.005-.447-1.005-1s.442-1 .994-1h.011c.552 0 1 .447 1 1s-.449 1-1 1z"/><path d="m26.004 19.002c-.553 0-1.005-.447-1.005-1s.442-1 .994-1h.011c.552 0 1 .447 1 1s-.448 1-1 1z"/><path d="m33.996 19.002c-.553 0-1.005-.447-1.005-1s.442-1 .994-1h.011c.552 0 1 .447 1 1s-.448 1-1 1z"/><path d="m22.006 21.995c-.553 0-1.005-.447-1.005-1s.442-1 .994-1h.011c.552 0 1 .447 1 1s-.448 1-1 1z"/><path d="m29.998 21.995c-.553 0-1.005-.447-1.005-1s.442-1 .994-1h.011c.552 0 1 .447 1 1s-.448 1-1 1z"/></svg>